<svg width="151" height="119" viewBox="0 0 151 119" fill="none" xmlns="http://www.w3.org/2000/svg">
<path d="M145.813 118.999H5.04001C3.78814 118.999 2.58754 118.523 1.70233 117.676C0.817127 116.828 0.319824 115.678 0.319824 114.48C51.3499 108.801 101.421 108.801 150.533 114.48C150.533 115.678 150.036 116.828 149.15 117.676C148.265 118.523 147.065 118.999 145.813 118.999Z" fill="#2F2E41"/>
<path d="M150.533 115.098L0.319824 114.82L17.729 85.4589L17.8123 85.3197V20.6116C17.8122 19.8262 17.9665 19.0484 18.2664 18.3228C18.5662 17.5971 19.0057 16.9378 19.5598 16.3824C20.1139 15.8271 20.7717 15.3865 21.4957 15.086C22.2196 14.7854 22.9956 14.6308 23.7792 14.6309H126.241C127.024 14.6308 127.8 14.7854 128.524 15.086C129.248 15.3865 129.906 15.8271 130.46 16.3824C131.014 16.9378 131.454 17.5971 131.753 18.3228C132.053 19.0484 132.208 19.8262 132.208 20.6116V85.765L150.533 115.098Z" fill="#3F3D56"/>
<path d="M23.7195 18.5332C23.205 18.5338 22.7117 18.7409 22.3479 19.109C21.984 19.4772 21.7794 19.9763 21.7788 20.497V79.9711C21.7794 80.4917 21.9841 80.9908 22.3479 81.359C22.7117 81.7271 23.205 81.9342 23.7195 81.9348H127.133C127.648 81.9342 128.141 81.7271 128.505 81.359C128.869 80.9908 129.073 80.4917 129.074 79.9711V20.497C129.073 19.9763 128.869 19.4772 128.505 19.1091C128.141 18.7409 127.648 18.5338 127.133 18.5332H23.7195Z" fill="white"/>
<path d="M24.0558 89.7383C23.897 89.7385 23.7417 89.7821 23.608 89.8638C23.4743 89.9456 23.3679 90.062 23.3013 90.1996L17.9535 101.295C17.8953 101.416 17.8698 101.548 17.8794 101.681C17.8891 101.814 17.9335 101.942 18.0086 102.054C18.0837 102.166 18.1871 102.258 18.3093 102.321C18.4315 102.385 18.5685 102.419 18.7078 102.419H131.17C131.312 102.419 131.451 102.384 131.574 102.318C131.698 102.252 131.802 102.158 131.876 102.043C131.951 101.928 131.993 101.797 132 101.662C132.006 101.527 131.976 101.392 131.913 101.272L126.1 90.1763C126.031 90.0444 125.925 89.9335 125.794 89.8561C125.663 89.7787 125.511 89.7378 125.357 89.7383H24.0558Z" fill="#2F2E41"/>
<path d="M74.9387 17.5582C75.7468 17.5582 76.4018 17.1215 76.4018 16.5828C76.4018 16.0441 75.7468 15.6074 74.9387 15.6074C74.1306 15.6074 73.4756 16.0441 73.4756 16.5828C73.4756 17.1215 74.1306 17.5582 74.9387 17.5582Z" fill="white"/>
<path d="M63.0563 104.369C62.8663 104.369 62.6816 104.44 62.5308 104.571C62.3799 104.701 62.2713 104.884 62.2217 105.091L60.8252 110.943C60.7907 111.088 60.7861 111.239 60.8118 111.386C60.8376 111.533 60.893 111.671 60.9737 111.79C61.0544 111.909 61.1582 112.005 61.2772 112.072C61.3962 112.138 61.5272 112.172 61.6598 112.172H88.218C88.3558 112.172 88.4916 112.135 88.6141 112.064C88.7366 111.993 88.8422 111.889 88.9221 111.763C89.0021 111.636 89.054 111.49 89.0735 111.336C89.0931 111.182 89.0798 111.025 89.0346 110.878L87.2393 105.025C87.1804 104.834 87.0701 104.668 86.9237 104.55C86.7773 104.432 86.602 104.369 86.4223 104.369H63.0563Z" fill="#2F2E41"/>
<path d="M129.074 38.041C139.848 38.041 148.582 29.5252 148.582 19.0205C148.582 8.51576 139.848 0 129.074 0C118.3 0 109.566 8.51576 109.566 19.0205C109.566 29.5252 118.3 38.041 129.074 38.041Z" fill="#BA369C"/>
<path d="M136.729 27.3123H120.443C120.145 27.3121 119.86 27.1972 119.649 26.9931C119.439 26.789 119.32 26.5122 119.32 26.2235V16.6962C119.32 16.4076 119.439 16.1308 119.649 15.9267C119.86 15.7225 120.145 15.6077 120.443 15.6074H136.729C137.027 15.6077 137.313 15.7225 137.523 15.9267C137.734 16.1308 137.852 16.4076 137.853 16.6962V26.2235C137.852 26.5122 137.734 26.789 137.523 26.9931C137.313 27.1972 137.027 27.3121 136.729 27.3123ZM120.443 16.6963V26.2235H136.73L136.729 16.6962L120.443 16.6963Z" fill="white"/>
<path d="M133.951 16.5822H124.197V12.2471C124.197 9.1071 126.248 6.82812 129.074 6.82812C131.9 6.82812 133.951 9.1071 133.951 12.2471L133.951 16.5822ZM125.281 15.4984H132.867V12.2471C132.867 9.69463 131.307 7.91192 129.074 7.91192C126.84 7.91192 125.281 9.69464 125.281 12.2471L125.281 15.4984Z" fill="white"/>
<path d="M128.586 22.434C129.394 22.434 130.049 21.779 130.049 20.9709C130.049 20.1629 129.394 19.5078 128.586 19.5078C127.778 19.5078 127.123 20.1629 127.123 20.9709C127.123 21.779 127.778 22.434 128.586 22.434Z" fill="white"/>
<path d="M115.871 61.4501H34.9818C34.5847 61.4496 34.204 61.2959 33.9231 61.0227C33.6423 60.7495 33.4844 60.3792 33.4839 59.9928V40.4729C33.4844 40.0865 33.6423 39.7161 33.9231 39.4429C34.204 39.1698 34.5847 39.0161 34.9818 39.0156H115.871C116.268 39.0161 116.649 39.1698 116.93 39.4429C117.211 39.7161 117.369 40.0865 117.369 40.4729V59.9928C117.369 60.3792 117.211 60.7495 116.93 61.0227C116.649 61.2959 116.268 61.4496 115.871 61.4501ZM34.9818 39.5985C34.7435 39.5988 34.5151 39.691 34.3466 39.8549C34.1781 40.0188 34.0833 40.2411 34.0831 40.4729V59.9928C34.0833 60.2246 34.1781 60.4469 34.3466 60.6108C34.5151 60.7747 34.7435 60.8669 34.9818 60.8672H115.871C116.109 60.8669 116.338 60.7747 116.506 60.6108C116.675 60.4469 116.77 60.2246 116.77 59.9928V40.4729C116.77 40.2411 116.675 40.0188 116.506 39.8549C116.338 39.691 116.109 39.5988 115.871 39.5985L34.9818 39.5985Z" fill="#E6E6E6"/>
<path d="M47.1396 55.5975C50.3718 55.5975 52.992 52.9773 52.992 49.745C52.992 46.5128 50.3718 43.8926 47.1396 43.8926C43.9073 43.8926 41.2871 46.5128 41.2871 49.745C41.2871 52.9773 43.9073 55.5975 47.1396 55.5975Z" fill="#E6E6E6"/>
<path d="M61.7894 45.8438C61.6589 45.8435 61.5297 45.8686 61.4091 45.9176C61.2885 45.9665 61.1789 46.0383 61.0866 46.1289C60.9943 46.2195 60.9211 46.3271 60.8711 46.4455C60.8211 46.564 60.7954 46.6909 60.7954 46.8192C60.7954 46.9474 60.8211 47.0743 60.8711 47.1928C60.9211 47.3112 60.9943 47.4188 61.0866 47.5094C61.1789 47.6 61.2885 47.6718 61.4091 47.7208C61.5297 47.7697 61.6589 47.7948 61.7894 47.7946H108.574C108.837 47.7946 109.089 47.6918 109.275 47.5089C109.461 47.3259 109.566 47.0779 109.566 46.8192C109.566 46.5605 109.461 46.3124 109.275 46.1294C109.089 45.9465 108.837 45.8438 108.574 45.8438H61.7894Z" fill="#E6E6E6"/>
<path d="M61.8021 51.6973C61.5351 51.6973 61.279 51.8 61.0903 51.983C60.9015 52.1659 60.7954 52.414 60.7954 52.6727C60.7954 52.9314 60.9015 53.1795 61.0903 53.3624C61.279 53.5453 61.5351 53.6481 61.8021 53.6481H82.2232C82.4901 53.6481 82.7462 53.5453 82.935 53.3624C83.1238 53.1795 83.2298 52.9314 83.2298 52.6727C83.2298 52.414 83.1238 52.1659 82.935 51.983C82.7462 51.8 82.4901 51.6973 82.2232 51.6973H61.8021Z" fill="#E6E6E6"/>
</svg>
