<svg width="223" height="110" viewBox="0 0 223 110" fill="none" xmlns="http://www.w3.org/2000/svg">
<path d="M212.849 60.8269L212.158 66.1003L210.443 79.1983H176C176.269 76.2626 176.637 72.0371 177.029 67.4755C177.068 67.02 177.109 66.5615 177.148 66.1003C178.133 54.6338 179.21 41.6582 179.21 41.6582L183.739 42.4669L192.524 44.033L196.104 44.6708L205.691 46.3821C210.47 47.2334 213.758 53.8679 212.849 60.8269Z" fill="#F2F2F2"/>
<path d="M186.623 19.5195L191 26.5559L182.588 32.0329L179 23.3838L186.623 19.5195Z" fill="#FFB6B6"/>
<path d="M181.5 26.2569C187.299 26.2569 192 21.7318 192 16.1499C192 10.568 187.299 6.04297 181.5 6.04297C175.701 6.04297 171 10.568 171 16.1499C171 21.7318 175.701 26.2569 181.5 26.2569Z" fill="#FFB6B6"/>
<path d="M180.36 18.607C179.518 17.3733 179.848 16.728 179.143 16.2746C179.143 16.2746 178.859 16.0922 176.827 15.9882C176.372 12.8386 175.804 12.4567 175.804 12.4567C175.149 12.0165 174.178 12.1595 173.573 12.4288C172.295 12.9982 172.443 14.2282 171.583 14.4635C170.394 14.7887 168.231 12.9557 168.018 10.8573C167.844 9.14561 168.991 7.48314 169.445 7.57108C169.896 7.65829 170.976 6.33271 171.559 6.35315C171.957 6.36711 173.583 5.68717 174.021 5.74033C174.499 5.7984 176.074 6.58917 176.14 6.4085C176.596 5.15303 176.462 4.80469 176.849 4.44553C177.535 3.8091 178.657 4.25229 180.418 4.49023C184.04 4.97978 184.672 3.83107 186.528 4.60967C187.466 5.00299 188.251 6.0637 189.782 8.16908C191.923 11.1134 192.993 12.5856 193 14.3027C193.007 16.0538 192.125 15.9426 191.738 18.535C191.307 21.4207 192.223 22.7403 191.222 23.6778C190.449 24.4024 188.877 24.5744 188.051 23.9384C186.637 22.8497 188.488 20.2225 186.923 18.303C185.962 17.1248 184.031 16.6006 183.146 17.183C182.145 17.8415 182.696 19.7744 181.993 19.9577C181.39 20.1147 180.507 18.822 180.36 18.607Z" fill="#2F2E41"/>
<path d="M204.931 59.2124C204.639 64.1329 203.478 65.6863 203.071 71.4974C202.982 72.7732 202.929 74.254 202.929 76.0201C202.929 76.4704 202.932 76.9057 202.932 77.331C202.932 78.2365 202.914 79.0921 202.807 79.96C202.726 80.653 202.586 81.3509 202.355 82.0863H179.791C179.788 82.0813 179.788 82.0763 179.786 82.0713C179.654 81.506 179.57 80.9657 179.506 80.4479C179.486 80.2827 179.468 80.1202 179.453 79.96C179.433 79.7724 179.415 79.5874 179.397 79.4048C179.329 78.6768 179.26 77.9889 179.097 77.331C178.879 76.4229 178.483 75.5673 177.67 74.7419C177.337 74.4042 177.005 74.1416 176.679 73.9114C176.616 73.8688 176.555 73.8263 176.491 73.7838C175.592 73.1759 174.741 72.7381 174.004 71.4974C173.992 71.4799 173.982 71.4599 173.971 71.4424C173.844 71.2247 173.514 70.6543 173.275 69.894C173.024 69.1034 172.872 68.1103 173.146 67.0948C173.799 64.6883 176.217 64.4481 178.193 62.0166C178.407 61.754 178.617 61.4638 178.818 61.1411C179.712 59.7102 179.953 58.4495 180.238 56.951C180.284 56.7083 180.324 56.4682 180.357 56.2356C180.383 56.0605 180.406 55.8879 180.424 55.7177C180.581 54.2894 180.505 53.0586 180.319 51.958C179.715 48.3533 177.932 46.1219 179.191 42.8874C179.588 41.8719 180.149 41.1089 180.715 40.456C181.914 39.0726 183.146 38.1746 182.933 36.3886C182.717 34.5874 181.33 34.3397 181.175 32.7662C181.097 31.9708 181.361 31.1328 181.856 30.3098V30.3073C183.441 27.6581 187.399 25.2192 189.913 25.2967C190.378 25.3093 190.79 25.4118 191.133 25.6094C192.375 26.3298 191.857 27.9033 193.759 30.1097C195.174 31.7482 196.774 32.4036 197.381 32.7137C199.787 33.9496 201.743 37.5943 203.071 42.2546C203.081 42.2896 203.092 42.3246 203.102 42.3622C203.922 45.2814 204.502 48.596 204.789 51.958C204.91 53.3813 204.982 54.8123 204.997 56.228C205.01 57.3587 204.984 58.3394 204.931 59.2124Z" fill="#BA369C"/>
<path d="M188.082 75.5997L187.616 76.8501L187.322 77.6339L186.641 79.4574L185.853 81.5661H180.783L181.634 79.4574L182.028 78.475L182.683 76.8501L183.781 74.1211L188.082 75.5997Z" fill="#FFB6B6"/>
<path d="M203.42 41.6361C203.407 41.7974 203.389 41.976 203.371 42.1696C203.17 44.1394 202.696 47.6647 202.002 51.6862C201.636 53.8073 201.209 56.0674 200.727 58.3126C199.691 63.1576 198.402 67.9285 196.946 71.0642C196.685 71.6299 196.417 72.141 196.144 72.5925C195.935 72.9373 195.716 73.2771 195.487 73.6121C194.745 74.7111 193.912 75.7532 193.049 76.7256C193.015 76.7678 192.976 76.8075 192.938 76.8497C192.799 77.0084 192.654 77.1648 192.51 77.321C191.804 78.0876 191.082 78.802 190.384 79.457C189.533 80.2559 188.713 80.963 187.979 81.5658H179.747L179.713 81.5509L178.528 81.0448C178.528 81.0448 178.865 80.6627 179.43 79.9408C179.546 79.7944 179.67 79.6331 179.804 79.457C179.969 79.2411 180.146 79.003 180.337 78.745C180.734 78.2042 181.185 77.5691 181.669 76.8497C182.608 75.4578 183.677 73.746 184.757 71.7639C184.881 71.5331 185.007 71.2999 185.134 71.0642C185.136 71.0568 185.141 71.0493 185.144 71.0419C185.358 70.64 185.569 70.2257 185.78 69.8039C187.572 66.2166 188.085 63.2395 188.232 62.2746C188.438 60.9101 188.724 59.0022 188.646 56.9034C188.595 55.5192 188.386 54.0553 187.889 52.6016V52.5992C187.786 52.294 187.67 51.9889 187.538 51.6862C187.304 51.1429 187.025 50.607 186.695 50.0786C185.239 47.7515 184.056 47.6547 183.115 45.1192C182.837 44.3676 182.206 42.6707 182.399 40.8795V40.877C182.422 40.6562 182.461 40.433 182.512 40.2096V40.2072C182.525 40.1451 182.543 40.0807 182.561 40.0187C182.708 39.4704 182.951 38.927 183.319 38.411C184.038 37.4088 185.02 36.8133 185.899 36.4586L185.902 36.4561C186.917 36.0493 187.793 35.9624 187.964 35.9475C191.729 35.6251 194.649 38.6715 196.245 40.3362C196.86 40.9787 197.425 41.5171 197.941 41.9561C201.953 45.4046 203.054 43.2015 203.34 42.0629C203.384 41.8867 203.407 41.7354 203.42 41.6361Z" fill="#BA369C"/>
<path d="M203.433 41.5078C203.433 41.5202 203.43 41.5623 203.42 41.6319C203.425 41.5945 203.428 41.5574 203.43 41.5226C203.43 41.5152 203.43 41.5102 203.433 41.5078Z" fill="#BA369C"/>
<path d="M182.67 93.6367H44.3329C43.0476 93.6367 42 94.7154 42 96.0419C42 97.3709 43.0476 98.4496 44.3329 98.4496H182.67C183.955 98.4496 185 97.3709 185 96.0419C185 94.7154 183.955 93.6367 182.67 93.6367Z" fill="#E6E6E6"/>
<path d="M152.656 105.188H75.3416C74.0502 105.188 73 106.266 73 107.593C73 108.919 74.0502 110 75.3416 110H152.656C153.947 110 155 108.919 155 107.593C155 106.266 153.947 105.188 152.656 105.188Z" fill="#E6E6E6"/>
<path d="M60 20.3467L69.0978 16.6309L73 24.3945L63.4396 28.1817L60 20.3467Z" fill="#FFB6B6"/>
<path opacity="0.1" d="M60 20.3467L69.0978 16.6309L73 24.3945L63.4396 28.1817L60 20.3467Z" fill="black"/>
<path d="M61.3624 17.3484L70 26.8559C70 26.8559 63.9913 44.9741 57.9825 46.5886C51.9738 48.203 40.8952 56.0961 40.8952 56.0961L27 47.4855L33.7598 37.978C33.7598 37.978 50.0961 16.6309 54.4148 16.6309C58.7336 16.6309 61.3624 17.3484 61.3624 17.3484Z" fill="#BA369C"/>
<path d="M50 79.1976H30.1864L28.9337 77.5715L23.8193 70.9324L22.6425 69.4051C22.6425 69.4051 18.2016 61.4992 19.1268 54.3121C20.052 47.1249 29.6738 45.5078 29.6738 45.5078H30.0698L41.8492 55.559L41.1461 64.9132L44.8764 70.9324L50 79.1976Z" fill="#2F2E41"/>
<path d="M34 79.1986H29V71.498L34 79.1986Z" fill="#2F2E41"/>
<path d="M149.853 67.8918L149.181 71.137L147.512 79.1973H114C114.262 77.3907 114.619 74.7904 115.002 71.9833C115.039 71.7029 115.079 71.4208 115.116 71.137C116.075 64.0807 117.124 56.0957 117.124 56.0957L121.529 56.5934L130.077 57.5571L133.561 57.9496L142.888 59.0027C147.539 59.5266 150.738 63.6093 149.853 67.8918Z" fill="#F2F2F2"/>
<path d="M196 79.1982H178C178.274 78.9103 178.429 78.7439 178.429 78.7439L183.825 77.9483L194.943 76.3105C194.943 76.3105 195.45 77.4806 196 79.1982Z" fill="#2F2E41"/>
<path d="M120.234 23.3691L128 34.5096L114.454 34.9199L113 24.4505L120.234 23.3691Z" fill="#A0616A"/>
<path opacity="0.1" d="M120.234 23.3691L128 34.5096L114.454 34.9199L113 24.4505L120.234 23.3691Z" fill="black"/>
<path d="M81.4336 45.7479C80.388 42.9371 77.9841 41.1614 76.0646 41.7818C74.1452 42.4022 73.4372 45.1834 74.4836 47.9951C74.885 49.1236 75.5707 50.1462 76.4831 50.9771L81.0748 62.8347L87 60.7081L81.8444 49.2444C82.0091 48.0651 81.8682 46.8661 81.4336 45.7479Z" fill="#A0616A"/>
<path d="M135 40.1375L134.989 51.024L133.94 55.0451L131.781 63.3156L130.21 70.9223L129.039 76.5896L128.622 78.6136C128.307 78.8169 127.994 79.0112 127.681 79.1983H100.416C98.8668 78.3005 98 77.6025 98 77.6025C98 77.6025 98.4287 77.2139 98.919 76.5896C99.7466 75.5353 100.748 73.8081 100.134 72.1583C100.006 71.8129 99.9721 71.3919 100.011 70.9223C100.261 67.8243 103.627 62.5852 103.627 62.5852L102.93 54.8094L102.625 51.4018L104.78 34.7868L111.805 30.845L113.018 30.7317L124.991 30.1074L129.939 30.3827L130.165 30.4421L135 40.1375Z" fill="#CCCCCC"/>
<path d="M135.01 79.4577H129.035L128.771 76.8514L128.766 76.7993L130.457 76.6878L134.859 76.3984L134.935 77.9586L134.995 79.1557L135.01 79.4577Z" fill="#FFB6B6"/>
<path d="M136.481 43.0634L138.991 57.2399L136.943 71.1899L136.624 73.3612L136.06 77.1952L135.886 78.3743L135.892 78.5019L135.935 79.4582H128.839L128.577 76.8519L128.555 76.6182L128.021 71.2798L128.011 71.1899L126.878 59.8696L129.1 51.6876L129.264 51.0854V51.0836L130.231 37.0743L129.482 30.7078L129.475 30.6484C129.49 30.6574 129.503 30.6664 129.518 30.6754C129.557 30.6988 129.596 30.7221 129.634 30.7473C133.996 33.4111 136.595 38.0845 136.481 43.0634Z" fill="#CCCCCC"/>
<path d="M107 37.6767L104.252 34.9199C104.252 34.9199 98.3706 37.4922 98.0774 38.9192C97.7842 40.3463 87.3993 61.3059 87.3993 61.3059L82.8811 49.6L77 53.409C77 53.409 81.719 71.583 86.1323 72.4362C90.5456 73.2894 105.337 50.9255 105.337 50.9255L107 37.6767Z" fill="#CCCCCC"/>
<path d="M217.554 71.498H5.44377C2.44151 71.498 0 73.8743 0 76.7934C0 79.7124 2.4415 82.0863 5.44377 82.0863H217.554C220.556 82.0863 223 79.7126 223 76.7934C223 73.8742 220.556 71.498 217.554 71.498Z" fill="#E6E6E6"/>
<path d="M132.999 54.6389L132.584 73.095C132.544 74.8816 131.012 76.3099 129.137 76.3099H93.5068C91.6758 76.3099 90.1641 74.9461 90.0641 73.2039L89.0052 54.7479C88.8973 52.8658 90.4698 51.2832 92.4479 51.2832H129.552C131.485 51.2832 133.041 52.7973 132.999 54.6389Z" fill="#3F3D56"/>
<path d="M76 24.3324C80.4183 24.3324 84 20.6693 84 16.1506C84 11.6319 80.4183 7.96875 76 7.96875C71.5817 7.96875 68 11.6319 68 16.1506C68 20.6693 71.5817 24.3324 76 24.3324Z" fill="#FFB6B6"/>
<path d="M61.7319 38.2806L62.6637 47.9663L69 72.5392L63.5259 74.3858L54.2774 47.6076L53 36.8457L61.7319 38.2806Z" fill="#FFB6B6"/>
<path d="M58.9992 54.6389L58.5841 73.095C58.544 74.8816 57.0125 76.3099 55.1371 76.3099H19.5068C17.6758 76.3099 16.1641 74.9461 16.0641 73.2039L15.0052 54.7479C14.8973 52.8658 16.4698 51.2832 18.4479 51.2832H55.5521C57.4852 51.2832 59.0406 52.7973 58.9992 54.6389Z" fill="#3F3D56"/>
<path d="M70 77.2734C73.866 77.2734 77 75.9806 77 74.3857C77 72.7909 73.866 71.498 70 71.498C66.134 71.498 63 72.7909 63 74.3857C63 75.9806 66.134 77.2734 70 77.2734Z" fill="#FFB6B6"/>
<path d="M49 39.2407L52.8377 19.8168C52.8377 19.8168 63.5083 18.3945 63.8827 21.7724C64.2572 25.1503 63.6152 41.6586 63.6152 41.6586L49 39.2407Z" fill="#BA369C"/>
<path d="M72.6131 18.0284C72.6131 18.0284 77.9393 16.2467 80.186 15.288C82.4327 14.3293 86.8961 21.016 86.9954 17.4845C87.0947 13.9531 85.5524 12.4721 85.5524 12.4721C85.5524 12.4721 85.1673 4.7466 76.8634 5.71248C76.8634 5.71248 78.6899 1.8473 72.6944 1.24963C66.6989 0.651948 57.3714 14.2226 58.2068 16.2506C59.0421 18.2787 60.0435 19.9554 57.6735 22.1238C55.3036 24.2922 50.8658 36.5304 54.2423 39.8235C57.6187 43.1167 57.8403 44.5458 55.5269 46.5946C53.2135 48.6433 47.7452 53.0981 53.6576 53.8715C59.5701 54.6449 53.1167 54.0673 57.5246 50.4331C61.9324 46.799 68.3644 46.9474 65.9628 41.1168C63.5612 35.2861 67.7336 26.9308 67.2115 25.6633C66.6895 24.3958 68.3813 16.3468 68.3813 16.3468C68.3813 16.3468 72.3186 15.8046 72.6131 18.0284Z" fill="#2F2E41"/>
<path d="M115.881 27.6216C120.982 27.6216 125.117 23.641 125.117 18.7307C125.117 13.8204 120.982 9.83984 115.881 9.83984C110.779 9.83984 106.644 13.8204 106.644 18.7307C106.644 23.641 110.779 27.6216 115.881 27.6216Z" fill="#A0616A"/>
<path d="M116.618 6.7771C116.35 6.92728 115.992 6.70006 115.907 6.41382C115.821 6.12758 115.921 5.82367 116.02 5.54143L116.518 4.12059C116.872 3.11291 117.247 2.07001 118.012 1.30303C119.168 0.145392 121.004 -0.149104 122.657 0.064248C124.779 0.338235 126.874 1.44462 127.861 3.27416C128.848 5.10371 128.428 7.65658 126.644 8.79803C129.186 11.6023 130.072 14.7275 129.932 18.4465C129.792 22.1656 125.582 25.5883 122.836 28.2083C122.223 27.8505 121.665 26.1737 122.002 25.5646C122.34 24.9555 121.856 24.2498 122.274 23.6887C122.692 23.1276 123.041 24.021 122.619 23.4631C122.352 23.1111 123.392 22.3012 122.996 22.0905C121.081 21.0714 120.444 18.7733 119.241 17.0135C117.79 14.8908 115.306 13.4533 112.678 13.2149C111.23 13.0835 109.701 13.3214 108.515 14.1305C107.328 14.9395 106.56 16.3852 106.835 17.7596C106.122 17.0631 105.768 16.0424 105.901 15.0733C106.035 14.1042 106.655 13.2081 107.531 12.7149C106.998 11.0176 107.455 9.06529 108.693 7.75188C109.93 6.43848 114.951 6.66217 116.757 7.00784L116.618 6.7771Z" fill="#2F2E41"/>
<path d="M116.898 13.2656C119.291 13.5143 121.019 15.5096 122.478 17.3522C123.319 18.4143 124.2 19.5872 124.179 20.9224C124.158 22.2724 123.22 23.4302 122.772 24.7096C122.039 26.8007 122.753 29.2886 124.497 30.7214C122.774 31.0361 120.912 29.7927 120.614 28.1291C120.268 26.1925 121.793 24.3234 121.612 22.3661C121.453 20.6417 120.041 19.3145 118.841 18.0251C117.641 16.7358 116.514 15.0248 117.066 13.3772L116.898 13.2656Z" fill="#2F2E41"/>
<path d="M152.674 72.1892C150.304 73.4869 149.078 75.7161 149.936 77.168C150.794 78.6199 153.411 78.7445 155.782 77.446C156.737 76.9398 157.551 76.221 158.158 75.3496L168.129 69.729L165.289 65.2812L155.761 71.2944C154.672 71.351 153.614 71.6579 152.674 72.1892Z" fill="#FFB6B6"/>
<path d="M186.434 30.9721C186.136 30.8584 183.521 29.9054 181.135 31.1637C178.393 32.6091 177.969 35.9087 177.821 37.066C177.478 39.7394 178.488 40.3386 178.702 43.0451C179.101 48.1086 180.154 42.3321 178.473 44.6433C177.891 45.4434 171.947 57.8411 168.67 60.2695C162.295 64.9924 158.247 68.3185 158.247 68.3185L162.868 73.1506C162.868 73.1506 170.171 71.2777 176.625 67.2436C183.246 63.1055 186.556 61.0365 189.118 56.9889C189.338 56.6403 194.615 48.0141 191.781 38.4755C191.135 36.2998 189.95 32.3134 186.434 30.9721Z" fill="#BA369C"/>
<path d="M209.999 54.6389L209.584 73.095C209.544 74.8816 208.012 76.3099 206.137 76.3099H170.507C168.676 76.3099 167.164 74.9461 167.064 73.2039L166.005 54.7479C165.897 52.8658 167.47 51.2832 169.448 51.2832H206.552C208.485 51.2832 210.041 52.7973 209.999 54.6389Z" fill="#3F3D56"/>
</svg>
