<svg width="42" height="42" viewBox="0 0 42 42" fill="none" xmlns="http://www.w3.org/2000/svg">
<rect x="0.00012207" width="42" height="42" rx="12" fill="#FEFEFF"/>
<g clip-path="url(#clip0_184_3798)">
<path d="M17.1541 29.001C16.6658 29.001 16.2886 28.7569 16.0889 28.313C15.8891 27.8692 16.0001 27.4476 16.3108 27.1147C16.7546 26.6487 17.1984 26.2048 17.6645 25.761C19.1957 24.2298 20.7269 22.6986 22.2581 21.1674C22.3912 21.0342 22.369 20.9677 22.2581 20.8345C20.3052 18.9261 18.3746 16.9954 16.4439 15.0648C16.1554 14.7541 15.9335 14.4212 16.0223 13.9774C16.1111 13.5336 16.3552 13.2229 16.7768 13.0675C17.265 12.9122 17.6866 13.0453 18.0417 13.4226C19.0181 14.399 19.9946 15.3754 20.971 16.3519C22.2137 17.5946 23.4564 18.8595 24.7213 20.1022C25.2983 20.6792 25.2983 21.3449 24.7213 21.9219C22.5022 24.141 20.283 26.3824 18.0417 28.6015C17.7976 28.8456 17.5091 29.0232 17.1541 29.001Z" fill="url(#paint0_linear_184_3798)"/>
</g>
<defs>
<linearGradient id="paint0_linear_184_3798" x1="25.2463" y1="12.7159" x2="13.5252" y2="14.6311" gradientUnits="userSpaceOnUse">
<stop stop-color="#E72181"/>
<stop offset="0.34" stop-color="#BA369C"/>
<stop offset="0.70221" stop-color="#7657C7"/>
<stop offset="1" stop-color="#3974ED"/>
</linearGradient>
<clipPath id="clip0_184_3798">
<rect width="9.16505" height="16" fill="white" transform="translate(16.0001 13)"/>
</clipPath>
</defs>
</svg>
