<svg width="148" height="119" viewBox="0 0 148 119" fill="none" xmlns="http://www.w3.org/2000/svg">
<path d="M41.1405 105.004C41.1057 108.941 40.8145 112.872 40.2689 116.772C40.2498 116.909 40.229 117.046 40.2098 117.182L2.9858 116.976C2.8765 116.84 2.76893 116.703 2.6647 116.563C2.31717 116.102 1.99146 115.628 1.69245 115.138C0.255283 112.775 -0.402666 110.009 0.256663 108.1L0.268469 108.07C0.410793 107.652 0.635065 107.266 0.928406 106.935C2.43166 105.258 5.4711 105.538 8.22932 106.891C5.75538 104.208 3.78547 100.824 3.6358 97.8025C3.48904 94.8556 5.0447 92.7504 6.732 90.9614C6.78737 90.9023 6.84272 90.8448 6.89808 90.7873C6.92494 90.7577 6.95343 90.7298 6.98022 90.7002C8.29667 89.3369 9.83144 87.9929 12.0529 88.1554C14.4893 88.3341 17.1905 90.3554 19.0845 92.7109C20.9785 95.0647 22.2371 97.7386 23.5128 100.348C24.7902 102.956 26.1722 105.631 28.2219 107.86C25.4457 104.382 23.2072 100.424 22.3804 96.5752C21.5535 92.7262 22.2812 89.0295 24.7555 87.2167C25.5067 86.6834 26.3759 86.336 27.2905 86.2036C27.3972 86.186 27.5056 86.1718 27.6158 86.1592C29.9063 85.901 32.6411 86.6857 34.9679 88.5613C37.5304 90.6265 39.307 93.6881 40.191 96.5945C41.0749 99.5009 41.1691 102.299 41.1405 105.004Z" fill="#F2F2F2"/>
<path d="M16.9946 117.182L16.2537 117.178C16.0185 117.04 15.7821 116.903 15.5447 116.768C15.3977 116.68 15.249 116.596 15.1002 116.51C12.6427 115.097 10.1699 113.742 7.68177 112.444C5.19587 111.145 2.69746 109.906 0.186558 108.727C0.120001 108.699 0.0657015 108.651 0.0330929 108.59C0.000484362 108.529 -0.00837254 108.459 0.0080655 108.392C0.0107552 108.384 0.0149256 108.375 0.0204124 108.368C0.0554345 108.306 0.133708 108.28 0.247948 108.333C0.555928 108.479 0.865686 108.624 1.17364 108.773C3.6914 109.972 6.19836 111.231 8.69451 112.551C11.1889 113.869 13.6692 115.246 16.1352 116.681C16.187 116.711 16.2389 116.742 16.2908 116.772C16.5259 116.908 16.7594 117.045 16.9946 117.182Z" fill="white"/>
<path d="M25.9392 117.183L25.5095 117.181C25.4126 117.041 25.3173 116.902 25.2204 116.763C22.9432 113.484 20.6665 110.206 18.3903 106.928C14.6627 101.56 10.9362 96.1929 7.21088 90.8256C7.1888 90.7967 7.17238 90.7637 7.16253 90.7284C7.13067 90.6096 7.2157 90.5399 7.32467 90.5522C7.37062 90.5589 7.41463 90.5756 7.45379 90.6012C7.49294 90.6268 7.52633 90.6607 7.55173 90.7005C9.64161 93.7106 11.731 96.7194 13.8198 99.7272C17.528 105.068 21.2356 110.408 24.9428 115.747C25.1786 116.086 25.4144 116.426 25.6502 116.765C25.7471 116.905 25.844 117.044 25.9392 117.183Z" fill="white"/>
<path d="M145.603 115.281H3.33575C2.01393 115.281 0.936523 116.115 0.936523 117.14C0.936523 118.167 2.01393 119 3.33575 119H145.603C146.925 119 148 118.167 148 117.14C148 116.115 146.925 115.281 145.603 115.281Z" fill="#E6E6E6"/>
<path d="M99.4179 36.1546C99.4132 38.7941 98.62 41.373 97.1385 43.5651C95.6571 45.7572 93.554 47.4641 91.0952 48.4699C88.6363 49.4757 85.9322 49.7352 83.3248 49.2157C80.7173 48.6961 78.3237 47.4208 76.4465 45.5511C74.5693 43.6813 73.2929 41.3011 72.7786 38.7114C72.2644 36.1216 72.5355 33.4387 73.5576 31.0019C74.5797 28.5651 76.3069 26.4838 78.5208 25.0212C80.7347 23.5586 83.3358 22.7805 85.9953 22.7852C87.7624 22.7837 89.5124 23.1289 91.1447 23.8009C92.7769 24.4728 94.2593 25.4583 95.5067 26.7007C96.754 27.943 97.7416 29.4178 98.4129 31.0402C99.0841 32.6627 99.4257 34.4007 99.4179 36.1546Z" fill="#F2F2F2"/>
<path d="M121.793 43.6185L123.688 40.1656C121.989 38.2075 116.414 35.8325 116.414 35.8325L108.869 29.2785C108.789 28.986 108.629 28.719 108.406 28.5042C108.183 28.2894 107.905 28.1344 107.599 28.0548C107.294 27.9753 106.972 27.9739 106.665 28.0509C106.359 28.128 106.079 28.2807 105.855 28.4936C105.63 28.7066 105.468 28.9723 105.385 29.264C105.302 29.5558 105.301 29.8632 105.382 30.1555C105.463 30.4477 105.623 30.7144 105.847 30.9287C106.07 31.143 106.349 31.2973 106.654 31.3762L114.806 40.7062L121.793 43.6185Z" fill="#9E616A"/>
<path d="M121.064 43.645L123.666 44.4898C125.559 45.1041 127.598 45.0578 129.461 44.3582C130.025 44.1442 130.519 43.7737 130.887 43.2886C131.255 42.8035 131.483 42.2231 131.544 41.6129C131.622 40.7853 131.389 39.9584 130.892 39.2994C130.394 38.6404 129.67 38.1984 128.866 38.0629C126.425 37.654 123.281 37.4524 122.159 38.8135L122.148 38.8273L121.064 43.645Z" fill="#3F3D56"/>
<path d="M101.714 54.6857C109.14 54.6857 115.161 48.7106 115.161 41.3399C115.161 33.9693 109.14 27.9941 101.714 27.9941C94.2878 27.9941 88.2676 33.9693 88.2676 41.3399C88.2676 48.7106 94.2878 54.6857 101.714 54.6857Z" fill="white"/>
<path d="M96.19 36.0523C96.0101 37.1048 95.7151 38.1301 95.3113 39.1063C92.9992 44.4328 99.5837 42.6966 101.937 42.6966C104.51 42.6966 106.971 44.1699 106.595 37.6237C106.435 34.8275 104.51 32.5508 101.937 32.5508C99.7393 32.5508 96.6495 33.6145 96.19 36.0523Z" fill="#2F2E41"/>
<path d="M102.042 42.3161C104.216 42.3161 105.978 40.5673 105.978 38.41C105.978 36.2527 104.216 34.5039 102.042 34.5039C99.8685 34.5039 98.1064 36.2527 98.1064 38.41C98.1064 40.5673 99.8685 42.3161 102.042 42.3161Z" fill="#FFB6B6"/>
<path d="M98.9943 34.5201C99.6969 34.0948 100.502 33.8647 101.324 33.8539C102.147 33.8431 102.958 34.0521 103.671 34.4588C104.385 34.8656 104.975 35.4553 105.381 36.1662C105.786 36.8771 105.992 37.6832 105.977 38.5001C103.934 39.0094 101.787 39.3992 99.6087 38.6219L99.0942 37.3715L98.7909 38.6228C98.1274 38.8921 97.4622 39.12 96.797 38.6202C96.7698 37.8056 96.9585 36.9982 97.3441 36.2787C97.7297 35.5592 98.2987 34.9528 98.9943 34.5201Z" fill="#2F2E41"/>
<path d="M112.537 50.0427C110.181 52.7367 106.866 54.3917 103.307 54.6502C99.7484 54.9087 96.2311 53.7501 93.5146 51.4245L94.6808 48.1536C94.9444 47.5727 95.3602 47.0748 95.8839 46.7133C96.4075 46.3519 97.0192 46.1406 97.6532 46.1019L98.3951 46.0562L100.164 44.5225C100.164 44.5225 104.931 44.3515 104.86 44.2695L107.747 46.0152L107.745 46.0032L108.88 46.073C109.514 46.1115 110.126 46.3228 110.649 46.6842C111.173 47.0457 111.589 47.5437 111.852 48.1247L112.537 50.0427Z" fill="#BA369C"/>
<path d="M100.451 105.717L100.108 101.161C97.8599 100.088 95.3715 99.5555 92.8589 99.6092C96.3938 102.217 96.1107 107.431 98.5588 110.998C99.3313 112.106 100.355 113.033 101.554 113.711C102.753 114.389 104.096 114.801 105.484 114.916L108.426 116.532C108.763 114.409 108.613 112.241 107.987 110.178C107.362 108.115 106.275 106.207 104.802 104.583C103.967 103.681 103.015 102.882 101.971 102.206C101.328 103.968 100.451 105.717 100.451 105.717Z" fill="#F2F2F2"/>
<path d="M12.896 23.6901L12.5671 19.1336C10.4128 18.0609 8.02807 17.5282 5.62012 17.5818C9.00778 20.1901 8.73643 25.4033 11.0826 28.971C11.8229 30.0782 12.8038 31.0052 13.9527 31.6834C15.1015 32.3616 16.3889 32.7736 17.7193 32.8888L20.5387 34.5045C20.8612 32.3812 20.7178 30.2135 20.1183 28.1508C19.5188 26.088 18.4774 24.1793 17.066 22.556C16.2652 21.6532 15.3534 20.8544 14.3522 20.1785C13.7359 21.9409 12.896 23.6901 12.896 23.6901Z" fill="#F2F2F2"/>
<path d="M113.192 114.578L110.97 114.578L109.913 106.115H113.193L113.192 114.578Z" fill="#9E616A"/>
<path d="M113.192 117.183L106.633 117.183V117.092C106.633 116.346 106.902 115.63 107.381 115.103C107.86 114.575 108.509 114.279 109.186 114.279H109.186L110.385 113.277L112.62 114.279L113.193 114.279L113.192 117.183Z" fill="#2F2E41"/>
<path d="M132.87 114.578L130.648 114.578L129.591 106.115H132.87L132.87 114.578Z" fill="#9E616A"/>
<path d="M133.527 117.183L126.312 117.183V117.092C126.312 116.346 126.607 115.63 127.134 115.103C127.661 114.575 128.375 114.279 129.12 114.279H129.12L130.438 113.277L132.897 114.279L133.527 114.279L133.527 117.183Z" fill="#2F2E41"/>
<path d="M129.413 68.8276L131.332 86.7699C131.332 86.7699 133.887 104.735 133.407 107.214C132.927 109.693 133.527 110.047 133.527 110.047L129.149 109.74C129.149 109.74 129.269 108.206 128.55 107.497C127.83 106.789 128.19 104.664 128.19 104.664L119.698 75.4379L114.541 90.7833C114.541 90.7833 113.701 107.663 113.582 107.899C113.462 108.135 113.102 111.322 113.102 111.322H108.664C108.664 111.322 109.264 109.434 108.424 108.844C107.585 108.253 106.865 108.726 107.585 107.663C108.304 106.601 108.544 105.302 108.304 104.712C108.064 104.122 108.064 101.761 108.064 101.761C108.064 101.761 108.424 69.89 110.463 68.8276C112.502 67.7653 129.413 68.8276 129.413 68.8276Z" fill="#2F2E41"/>
<path d="M120.408 33.2021C122.944 33.2021 124.999 31.1618 124.999 28.645C124.999 26.1282 122.944 24.0879 120.408 24.0879C117.872 24.0879 115.816 26.1282 115.816 28.645C115.816 31.1618 117.872 33.2021 120.408 33.2021Z" fill="#9E616A"/>
<path d="M130.81 71.037C121.823 72.8756 109.913 69.7147 109.913 69.7147L113.09 56.0718L111.961 41.7944C111.823 40.0485 112.827 38.4118 114.388 37.8319L116.545 37.0318L118.327 34.5039L123.418 34.6694L125.453 37.3232L127.059 38.1674L130.542 39.9969L130.557 40.0044V40.012L129.464 50.5121L128.805 56.8431C128.805 56.8431 130.807 63.9636 130.396 64.9079C129.985 65.8508 130.342 65.3953 130.442 65.8993C130.541 66.4034 130.846 66.4353 130.892 67.4282C130.94 68.4196 130.81 71.037 130.81 71.037Z" fill="#3F3D56"/>
<path d="M119.969 32.5442C120.798 32.5362 121.625 32.4609 122.441 32.3191C123.248 32.1423 125.03 30.8333 125.516 30.06C125.876 29.4855 126.093 28.5968 126.211 27.9524C126.371 27.0997 126.34 26.2247 126.121 25.384C125.902 24.5433 125.499 23.7557 124.94 23.0721C124.724 22.7858 124.431 22.5601 124.091 22.4191C124.061 22.4088 124.03 22.3997 123.999 22.3921C123.507 22.2819 123.06 22.0343 122.717 21.6813C122.65 21.6098 122.578 21.5429 122.502 21.4813C122.117 21.1884 121.664 20.9863 121.181 20.8914C120.401 20.7133 119.285 20.9364 117.864 21.555C117.15 21.8658 116.358 21.7791 115.747 21.6689C115.713 21.6634 115.678 21.6666 115.645 21.6781C115.613 21.6896 115.584 21.709 115.562 21.7344C115.31 21.9712 114.972 22.1085 114.618 22.1188C114.401 22.1332 114.181 22.4244 113.916 22.8035C113.856 22.8896 113.786 22.99 113.735 23.0513L113.725 22.9362L113.605 23.0678C113.418 23.2747 113.289 23.5233 113.229 23.7905C113.17 24.0576 113.183 24.3347 113.267 24.5958C113.351 24.8569 113.503 25.0936 113.709 25.2839C113.915 25.4742 114.168 25.6118 114.446 25.684C114.665 25.7338 114.89 25.7622 115.116 25.7687C115.253 25.777 115.395 25.7856 115.531 25.8046C115.968 25.8786 116.377 26.0589 116.719 26.328C117.061 26.5972 117.323 26.9459 117.481 27.3402C117.518 27.4313 117.577 27.5131 117.652 27.5793C117.728 27.6454 117.819 27.6941 117.918 27.7216C118.016 27.7491 118.12 27.7547 118.222 27.738C118.323 27.7212 118.419 27.6825 118.502 27.625C118.64 27.5171 118.804 27.4426 118.979 27.4079C119.154 27.3731 119.336 27.3791 119.508 27.4254C119.657 27.4997 119.776 27.6207 119.843 27.7681C119.924 27.9321 120.054 28.0694 120.218 28.1626C120.775 28.4186 120.845 29.6115 120.675 30.6116C120.511 31.5755 120.153 32.2787 119.805 32.3216C119.538 32.3545 119.507 32.3734 119.489 32.4189L119.473 32.4597L119.504 32.4968C119.654 32.5442 119.812 32.5604 119.969 32.5442Z" fill="#2F2E41"/>
<path d="M101.386 55.3367C98.6615 55.3367 95.9984 54.5349 93.7332 53.0327C91.4679 51.5305 89.7024 49.3953 88.6599 46.8972C87.6173 44.3991 87.3445 41.6503 87.876 38.9983C88.4075 36.3463 89.7194 33.9103 91.6458 31.9984C93.5722 30.0864 96.0266 28.7843 98.6986 28.2568C101.371 27.7293 104.14 28.0001 106.657 29.0348C109.174 30.0696 111.325 31.8218 112.839 34.0701C114.353 36.3183 115.16 38.9615 115.16 41.6654C115.156 45.29 113.704 48.765 111.121 51.328C108.539 53.8909 105.038 55.3326 101.386 55.3367ZM101.386 28.3324C98.7289 28.3324 96.1317 29.1144 93.9225 30.5794C91.7134 32.0445 89.9915 34.1268 88.9748 36.5631C87.958 38.9994 87.692 41.6802 88.2103 44.2666C88.7286 46.8529 90.0081 49.2287 91.8868 51.0933C93.7656 52.958 96.1592 54.2278 98.7651 54.7423C101.371 55.2567 104.072 54.9927 106.527 53.9835C108.981 52.9744 111.079 51.2655 112.556 49.0729C114.032 46.8803 114.82 44.3025 114.82 41.6654C114.816 38.1305 113.399 34.7416 110.88 32.242C108.362 29.7425 104.947 28.3364 101.386 28.3324Z" fill="#3F3D56"/>
<path d="M54.4871 26.6916C61.9135 26.6916 67.9337 20.7165 67.9337 13.3458C67.9337 5.97511 61.9135 0 54.4871 0C47.0608 0 41.0405 5.97511 41.0405 13.3458C41.0405 20.7165 47.0608 26.6916 54.4871 26.6916Z" fill="white"/>
<path d="M55.1429 14.973C57.4976 14.973 59.4065 13.0784 59.4065 10.7414C59.4065 8.40431 57.4976 6.50977 55.1429 6.50977C52.7882 6.50977 50.8794 8.40431 50.8794 10.7414C50.8794 13.0784 52.7882 14.973 55.1429 14.973Z" fill="#FFB8B8"/>
<path d="M58.7366 7.71139C58.7366 7.71139 59.9021 5.66213 57.338 5.47583C57.338 5.47583 55.1521 3.65204 52.924 5.14241C52.924 5.14241 51.7087 5.14241 51.0441 6.40731C51.0441 6.40731 50.0883 6.0739 49.8782 6.9662C49.8782 6.9662 49.1788 8.82917 49.8782 10.5058C50.5776 12.1825 50.81 12.3688 50.81 12.3688C50.81 12.3688 50.3192 10.2882 53.1167 10.1019C55.9141 9.91556 58.4805 8.30371 58.7136 10.353C58.9468 12.4022 59.2031 11.4765 59.2031 11.4765C59.2031 11.4765 61.4173 8.54973 58.7366 7.71139Z" fill="#2F2E41"/>
<path d="M64.6538 22.3381C62.2983 24.8638 58.9833 26.4153 55.4244 26.6577C51.8655 26.9 48.3482 25.8138 45.6318 23.6336L46.798 20.5671C47.0616 20.0225 47.4774 19.5557 48.0011 19.2169C48.5247 18.878 49.1363 18.6799 49.7704 18.6437L50.5123 18.6008L52.2813 17.163C52.2813 17.163 57.0479 17.0026 56.9772 16.9258L59.8645 18.5623L59.8621 18.5511L60.9971 18.6166C61.6312 18.6526 62.2429 18.8507 62.7666 19.1896C63.2902 19.5284 63.7061 19.9953 63.9695 20.54L64.6538 22.3381Z" fill="#BA369C"/>
<path d="M54.8151 27.3426C52.0907 27.3426 49.4276 26.5408 47.1624 25.0386C44.8971 23.5364 43.1316 21.4012 42.0891 18.9031C41.0465 16.405 40.7737 13.6561 41.3052 11.0042C41.8367 8.35219 43.1486 5.9162 45.075 4.00424C47.0014 2.09227 49.4558 0.790207 52.1278 0.262697C54.7998 -0.264813 57.5694 0.00592266 60.0864 1.04067C62.6033 2.07542 64.7546 3.8277 66.2682 6.07594C67.7818 8.32417 68.5896 10.9674 68.5896 13.6713C68.5855 17.2959 67.1329 20.7708 64.5506 23.3338C61.9682 25.8968 58.467 27.3385 54.8151 27.3426ZM54.8151 0.338288C52.1581 0.338288 49.5609 1.12025 47.3517 2.5853C45.1426 4.05035 43.4207 6.13269 42.404 8.56898C41.3872 11.0053 41.1212 13.6861 41.6395 16.2724C42.1578 18.8588 43.4373 21.2345 45.316 23.0992C47.1947 24.9638 49.5884 26.2337 52.1943 26.7481C54.8002 27.2626 57.5012 26.9985 59.9559 25.9894C62.4106 24.9803 64.5087 23.2713 65.9848 21.0787C67.4609 18.8861 68.2488 16.3083 68.2488 13.6713C68.2448 10.1364 66.8281 6.74742 64.3097 4.24787C61.7913 1.74831 58.3767 0.342298 54.8151 0.338288Z" fill="#3F3D56"/>
<path d="M23.0022 48.174C30.4286 48.174 36.4488 42.1989 36.4488 34.8282C36.4488 27.4575 30.4286 21.4824 23.0022 21.4824C15.5759 21.4824 9.55566 27.4575 9.55566 34.8282C9.55566 42.1989 15.5759 48.174 23.0022 48.174Z" fill="white"/>
<path d="M16.9941 30.2056C17.5238 28.4419 18.7285 26.8242 20.3946 26.228C22.0608 25.6317 24.5005 26.54 25.7531 27.8441C28.0444 30.2296 28.6035 38.4246 27.0294 41.0143C26.7162 40.997 25.6358 40.9842 25.3189 40.9718L24.8706 39.4109V40.9564C24.3657 40.9401 23.8569 40.9289 23.3442 40.9227C21.6249 40.9004 19.9809 40.1827 18.7577 38.9204C17.5346 37.6581 16.8275 35.9495 16.7852 34.1539C16.7442 32.4362 16.7853 30.9007 16.9941 30.2056Z" fill="#2F2E41"/>
<path d="M22.6744 36.4567C24.8479 36.4567 26.6099 34.7079 26.6099 32.5506C26.6099 30.3933 24.8479 28.6445 22.6744 28.6445C20.5008 28.6445 18.7388 30.3933 18.7388 32.5506C18.7388 34.7079 20.5008 36.4567 22.6744 36.4567Z" fill="#9E616A"/>
<path d="M19.3945 28.8809L23.864 26.6914C24.7778 27.0943 25.5648 27.7289 26.1433 28.5296C26.7219 29.3303 27.0709 30.2678 27.1543 31.245L27.2657 32.5505L25.3941 32.0844L25.1891 30.415L24.8712 31.9542L24.0075 31.7392L24.0157 29.1475L23.1514 31.7373L20.0666 31.0439L19.3945 28.8809Z" fill="#2F2E41"/>
<path d="M33.169 43.5309C30.8135 46.225 27.4985 47.8799 23.9396 48.1385C20.3807 48.397 16.8634 47.2384 14.147 44.9128L15.3131 41.6419C15.5767 41.0609 15.9926 40.5631 16.5162 40.2016C17.0398 39.8402 17.6515 39.6288 18.2855 39.5902L19.0274 39.5444L20.7965 38.0108C20.7965 38.0108 25.5631 37.8397 25.4923 37.7578L28.3796 39.5035L28.3772 39.4914L29.5122 39.5613C30.1463 39.5998 30.758 39.811 31.2817 40.1725C31.8054 40.534 32.2212 41.0319 32.4846 41.613L33.169 43.5309Z" fill="#BA369C"/>
<path d="M23.0023 48.1746C20.3428 48.1746 17.743 47.3728 15.5317 45.8706C13.3205 44.3684 11.597 42.2332 10.5792 39.7351C9.56149 37.237 9.2952 34.4882 9.81404 31.8362C10.3329 29.1842 11.6135 26.7482 13.4941 24.8363C15.3746 22.9243 17.7706 21.6222 20.379 21.0947C22.9873 20.5672 25.691 20.838 28.148 21.8727C30.6051 22.9075 32.7051 24.6597 34.1827 26.908C35.6602 29.1562 36.4488 31.7994 36.4488 34.5033C36.4448 38.1279 35.0268 41.6029 32.506 44.1659C29.9851 46.7288 26.5673 48.1705 23.0023 48.1746ZM23.0023 21.1703C20.4086 21.1703 17.8731 21.9523 15.7166 23.4173C13.56 24.8824 11.8792 26.9647 10.8866 29.401C9.89407 31.8373 9.63437 34.5181 10.1404 37.1045C10.6464 39.6908 11.8953 42.0665 13.7294 43.9312C15.5634 45.7959 17.9 47.0657 20.4439 47.5802C22.9877 48.0946 25.6245 47.8306 28.0207 46.8214C30.417 45.8123 32.4651 44.1034 33.906 41.9108C35.347 39.7182 36.1161 37.1404 36.1161 34.5033C36.1122 30.9684 34.7293 27.5795 32.2708 25.0799C29.8123 22.5803 26.4791 21.1743 23.0023 21.1703Z" fill="#3F3D56"/>
<path d="M113.849 48.4015L111.838 44.9199C109.233 45.2503 104.219 48.5708 104.219 48.5708L94.5204 51.2204C94.223 51.1257 93.9058 51.1108 93.6008 51.1774C93.2958 51.2439 93.0138 51.3895 92.7831 51.5995C92.5523 51.8095 92.3811 52.0765 92.2866 52.3735C92.192 52.6706 92.1775 52.9873 92.2446 53.2917C92.3116 53.5961 92.4577 53.8776 92.6683 54.1077C92.8789 54.3378 93.1465 54.5084 93.4441 54.6025C93.7418 54.6965 94.059 54.7106 94.3638 54.6433C94.6686 54.576 94.9503 54.4298 95.1806 54.2192L107.62 52.5992L113.849 48.4015Z" fill="#9E616A"/>
<path d="M113.629 48.8251L118.337 44.9381L119.022 41.8094C119.154 41.1947 119.109 40.5558 118.892 39.965C118.675 39.3741 118.295 38.8547 117.795 38.4657C117.112 37.9427 116.254 37.6946 115.394 37.7715C114.533 37.8484 113.734 38.2446 113.158 38.8799C111.414 40.8081 109.452 43.471 110.01 45.2074L110.015 45.225L113.629 48.8251Z" fill="#3F3D56"/>
<path d="M43.2662 62.4981H26.3519C25.8986 62.4976 25.464 62.3109 25.1434 61.9792C24.8229 61.6474 24.6426 61.1976 24.6421 60.7284V49.9455C24.6426 49.4763 24.8229 49.0265 25.1434 48.6947C25.464 48.3629 25.8986 48.1763 26.3519 48.1758H43.2662C43.7195 48.1763 44.1541 48.3629 44.4746 48.6947C44.7951 49.0265 44.9754 49.4763 44.976 49.9455V60.7284C44.9754 61.1976 44.7951 61.6474 44.4746 61.9792C44.1541 62.3109 43.7195 62.4976 43.2662 62.4981Z" fill="#E6E6E6"/>
<path d="M36.2791 61.1948H26.9558C26.5162 61.1943 26.0948 61.0169 25.784 60.7015C25.4732 60.3861 25.2984 59.9585 25.2979 59.5125V51.1589C25.2984 50.7129 25.4732 50.2852 25.784 49.9698C26.0948 49.6545 26.5162 49.4771 26.9558 49.4766H42.0061C42.4456 49.4771 42.867 49.6545 43.1778 49.9699C43.4886 50.2852 43.6634 50.7129 43.6639 51.1589V53.7011C43.6617 55.6879 42.8829 57.5926 41.4985 58.9975C40.1141 60.4024 38.237 61.1926 36.2791 61.1948Z" fill="white"/>
<path d="M40.6588 54.0338H28.9592C28.858 54.0338 28.761 53.9995 28.6894 53.9385C28.6178 53.8774 28.5776 53.7946 28.5776 53.7083C28.5776 53.622 28.6178 53.5392 28.6894 53.4782C28.761 53.4171 28.858 53.3828 28.9592 53.3828H40.6588C40.76 53.3828 40.857 53.4171 40.9286 53.4782C41.0001 53.5392 41.0403 53.622 41.0403 53.7083C41.0403 53.7946 41.0001 53.8774 40.9286 53.9385C40.857 53.9995 40.76 54.0338 40.6588 54.0338Z" fill="#BA369C"/>
<path d="M30.2559 55.3366H28.8672C28.7904 55.3366 28.7167 55.3023 28.6624 55.2412C28.6081 55.1802 28.5776 55.0974 28.5776 55.0111C28.5776 54.9247 28.6081 54.8419 28.6624 54.7809C28.7167 54.7198 28.7904 54.6855 28.8672 54.6855H30.2559C30.3327 54.6855 30.4063 54.7198 30.4606 54.7809C30.5149 54.8419 30.5454 54.9247 30.5454 55.0111C30.5454 55.0974 30.5149 55.1802 30.4606 55.2412C30.4063 55.3023 30.3327 55.3366 30.2559 55.3366Z" fill="#BA369C"/>
<path d="M34.0956 56.6393H28.963C28.8607 56.6391 28.7627 56.6047 28.6905 56.5437C28.6182 56.4827 28.5776 56.4 28.5776 56.3138C28.5776 56.2276 28.6182 56.1449 28.6905 56.0839C28.7627 56.0228 28.8607 55.9885 28.963 55.9883H34.0956C34.1979 55.9885 34.2959 56.0228 34.3682 56.0839C34.4404 56.1449 34.481 56.2276 34.481 56.3138C34.481 56.4 34.4404 56.4827 34.3682 56.5437C34.2959 56.6047 34.1979 56.6391 34.0956 56.6393Z" fill="#BA369C"/>
<path d="M23.6584 51.4307C25.6508 51.4307 27.266 49.8276 27.266 47.8501C27.266 45.8726 25.6508 44.2695 23.6584 44.2695C21.666 44.2695 20.0508 45.8726 20.0508 47.8501C20.0508 49.8276 21.666 51.4307 23.6584 51.4307Z" fill="#3F3D56"/>
<path d="M87.8142 14.3217H70.3543C69.8864 14.3212 69.4377 14.143 69.1069 13.8264C68.776 13.5097 68.5899 13.0803 68.5894 12.6324V2.33967C68.5899 1.8918 68.776 1.46242 69.1069 1.14573C69.4377 0.82904 69.8864 0.650898 70.3543 0.650391H87.8142C88.2821 0.650897 88.7307 0.829037 89.0616 1.14573C89.3925 1.46242 89.5786 1.8918 89.5791 2.33967V12.6324C89.5786 13.0803 89.3925 13.5097 89.0616 13.8264C88.7307 14.143 88.2821 14.3212 87.8142 14.3217Z" fill="#E6E6E6"/>
<path d="M80.8826 13.0204H71.5593C71.1198 13.0199 70.6984 12.8524 70.3875 12.5545C70.0767 12.2566 69.9019 11.8528 69.9014 11.4315V3.542C69.9019 3.12074 70.0767 2.71687 70.3875 2.41901C70.6984 2.12114 71.1198 1.95359 71.5593 1.95312H86.6096C87.0491 1.95359 87.4705 2.12114 87.7813 2.41901C88.0921 2.71688 88.2669 3.12075 88.2674 3.542V5.94293C88.2652 7.81935 87.4865 9.61829 86.102 10.9451C84.7176 12.2719 82.8405 13.0183 80.8826 13.0204Z" fill="white"/>
<path d="M85.2623 6.51039H73.5627C73.4615 6.51039 73.3645 6.47609 73.2929 6.41505C73.2214 6.35401 73.1812 6.27121 73.1812 6.18488C73.1812 6.09855 73.2214 6.01576 73.2929 5.95471C73.3645 5.89367 73.4615 5.85938 73.5627 5.85938H85.2623C85.3635 5.85938 85.4605 5.89367 85.5321 5.95471C85.6036 6.01576 85.6438 6.09855 85.6438 6.18488C85.6438 6.27121 85.6036 6.35401 85.5321 6.41505C85.4605 6.47609 85.3635 6.51039 85.2623 6.51039Z" fill="#BA369C"/>
<path d="M75.4188 7.81117H73.5672C73.4648 7.81117 73.3666 7.77688 73.2942 7.71583C73.2218 7.65479 73.1812 7.57199 73.1812 7.48566C73.1812 7.39933 73.2218 7.31654 73.2942 7.2555C73.3666 7.19445 73.4648 7.16016 73.5672 7.16016H75.4188C75.5212 7.16016 75.6194 7.19445 75.6918 7.2555C75.7642 7.31654 75.8049 7.39933 75.8049 7.48566C75.8049 7.57199 75.7642 7.65479 75.6918 7.71583C75.6194 7.77688 75.5212 7.81117 75.4188 7.81117Z" fill="#BA369C"/>
<path d="M78.6984 9.1139H73.5665C73.4642 9.11372 73.3662 9.07935 73.294 9.01832C73.2217 8.9573 73.1812 8.87461 73.1812 8.7884C73.1812 8.70218 73.2217 8.61949 73.294 8.55847C73.3662 8.49744 73.4642 8.46307 73.5665 8.46289H78.6984C78.8008 8.46289 78.899 8.49719 78.9714 8.55823C79.0439 8.61927 79.0845 8.70207 79.0845 8.7884C79.0845 8.87473 79.0439 8.95752 78.9714 9.01857C78.899 9.07961 78.8008 9.1139 78.6984 9.1139Z" fill="#BA369C"/>
<path d="M68.2614 16.9255C70.2539 16.9255 71.869 15.1766 71.869 13.0194C71.869 10.8621 70.2539 9.11328 68.2614 9.11328C66.269 9.11328 64.6538 10.8621 64.6538 13.0194C64.6538 15.1766 66.269 16.9255 68.2614 16.9255Z" fill="#3F3D56"/>
</svg>
