<svg width="42" height="42" viewBox="0 0 42 42" fill="none" xmlns="http://www.w3.org/2000/svg">
<rect x="42.0001" width="42" height="42" rx="12" transform="rotate(90 42.0001 0)" fill="url(#paint0_linear_184_3790)" fill-opacity="0.1"/>
<g clip-path="url(#clip0_184_3790)">
<path d="M13.0001 17.1538C13.0001 16.6656 13.2442 16.2883 13.6881 16.0886C14.1319 15.8889 14.5535 15.9999 14.8864 16.3105C15.3524 16.7544 15.7963 17.1982 16.2401 17.6642C17.7713 19.1954 19.3025 20.7266 20.8337 22.2578C20.9669 22.391 21.0334 22.3688 21.1666 22.2578C23.075 20.305 25.0057 18.3743 26.9363 16.4437C27.247 16.1552 27.5799 15.9333 28.0237 16.022C28.4675 16.1108 28.7782 16.3549 28.9336 16.7766C29.0889 17.2648 28.9558 17.6864 28.5785 18.0415C27.6021 19.0179 26.6257 19.9943 25.6492 20.9707C24.4065 22.2134 23.1416 23.4562 21.8989 24.7211C21.3219 25.2981 20.6562 25.2981 20.0792 24.7211C17.8601 22.5019 15.6187 20.2828 13.3996 18.0415C13.1555 17.7974 12.9779 17.5089 13.0001 17.1538Z" fill="#0E0E0F"/>
</g>
<defs>
<linearGradient id="paint0_linear_184_3790" x1="84.423" y1="-0.755999" x2="33.4268" y2="13.7888" gradientUnits="userSpaceOnUse">
<stop stop-color="#E72181"/>
<stop offset="0.34" stop-color="#BA369C"/>
<stop offset="0.70221" stop-color="#7657C7"/>
<stop offset="1" stop-color="#3974ED"/>
</linearGradient>
<clipPath id="clip0_184_3790">
<rect width="9.16505" height="16" fill="white" transform="translate(29.0001 16) rotate(90)"/>
</clipPath>
</defs>
</svg>
