<svg width="148" height="121" viewBox="0 0 148 121" fill="none" xmlns="http://www.w3.org/2000/svg">
<path d="M84.845 106.075C83.8352 104.615 82.4681 103.546 80.7495 103.146C79.2508 102.797 77.7098 102.857 76.1864 102.869L56.9236 103.022C55.2739 103.035 53.6922 104.512 53.7688 106.281C53.8448 108.035 55.1553 109.553 56.9236 109.539C62.5663 109.494 68.2089 109.449 73.8515 109.405C75.1818 109.394 76.5128 109.369 77.8432 109.374C78.142 109.375 78.4395 109.391 78.7379 109.394C78.8102 109.395 78.8624 109.395 78.8993 109.393C78.9085 109.396 78.9163 109.399 78.9284 109.402C79.084 109.446 79.2438 109.477 79.4004 109.518C79.3455 109.52 79.502 109.621 79.5805 109.655C79.5913 109.677 79.6143 109.716 79.6527 109.776C79.7064 109.88 79.8651 110.196 79.8717 110.186C80.1102 110.809 80.307 111.448 80.4606 112.099C80.8272 113.534 80.9078 113.834 80.9606 115.18C81.0273 116.881 82.3639 118.52 84.1154 118.439C85.7675 118.363 87.3418 117.005 87.2703 115.18C87.1497 112.106 86.6273 108.653 84.845 106.075Z" fill="#E6E6E6"/>
<path d="M57.5961 113.404C57.2261 111.163 56.8631 108.92 56.4859 106.68C56.1031 104.407 55.3214 102.326 53.5521 100.835C53.0794 100.436 52.5892 100.064 52.097 99.6934C51.9239 99.5631 51.7511 99.4325 51.58 99.2992C51.5698 99.2913 51.5633 99.2863 51.5544 99.2794C51.5356 99.2632 51.5131 99.244 51.4827 99.2183C50.7453 98.5945 50.0328 97.943 49.3541 97.2504C48.7513 96.6353 48.1749 95.9939 47.6249 95.3264C47.4874 95.1596 47.3517 94.9914 47.2178 94.8217C47.1948 94.7925 47.0707 94.6322 46.989 94.5276C46.9129 94.423 46.774 94.234 46.7507 94.201C46.5942 93.9798 46.4405 93.7566 46.2897 93.5313C45.262 91.9923 44.3721 90.3657 43.6303 88.6704C43.5568 88.5022 43.485 88.3331 43.4149 88.163C43.3961 88.1111 43.3718 88.0444 43.3395 87.9556C43.19 87.5448 43.0408 87.1344 42.9041 86.7186C42.6138 85.8356 42.3641 84.9396 42.1552 84.0305C42.0519 83.5816 41.9589 83.1304 41.8762 82.6769C41.8336 82.4437 41.7937 82.2101 41.7566 81.9759C41.7505 81.937 41.7143 81.6844 41.6929 81.5416C41.6771 81.3982 41.6478 81.1442 41.6439 81.105C41.6202 80.869 41.5993 80.6327 41.5809 80.3962C41.5397 79.864 41.5118 79.331 41.4973 78.7971C41.4724 77.8481 41.4894 76.8993 41.5483 75.9505C41.5817 75.4174 41.6294 74.8857 41.6881 74.355C41.6916 74.3224 41.6944 74.2965 41.6969 74.2731C41.7005 74.2494 41.7046 74.2225 41.7096 74.189C41.753 73.8957 41.7987 73.6028 41.8498 73.3108C42.0433 72.2023 42.295 71.1047 42.6038 70.0225C42.7501 69.5107 42.9089 69.0031 43.0803 68.4996C43.1567 68.2761 43.2356 68.0534 43.3168 67.8316C43.3115 67.8459 43.5552 67.2237 43.5585 67.2028C44.5254 64.9192 46.107 62.8374 46.1092 60.2433C46.1107 58.4869 44.6241 56.8045 42.8826 56.8856C42.0143 56.9183 41.1927 57.2866 40.5907 57.913C39.9888 58.5393 39.6537 59.3748 39.656 60.2433C39.656 60.2827 39.6558 60.3164 39.6557 60.349C39.6395 60.4037 39.6259 60.4493 39.6137 60.4897C39.4251 60.8993 39.1941 61.2885 38.9871 61.6879C38.4203 62.7811 37.9366 63.9102 37.477 65.0558C36.7247 66.9215 36.1488 68.8535 35.757 70.8265C34.9053 75.1494 34.8392 79.5903 35.5618 83.9367C36.8129 91.5587 40.9384 98.8548 46.674 103.759C47.1717 104.185 47.6816 104.596 48.1963 104.999C48.4093 105.166 48.624 105.329 48.8399 105.492C48.9419 105.569 49.3645 105.902 49.1786 105.741C49.5784 106.082 49.7467 106.253 49.8494 106.504C49.8642 106.562 49.8845 106.641 49.912 106.748C49.9844 107.032 50.0531 107.314 50.1102 107.602C50.6094 110.111 50.9564 112.663 51.3734 115.189C51.6601 116.925 53.7978 118.055 55.3426 117.535C57.1406 116.929 57.9032 115.264 57.5961 113.404Z" fill="#E6E6E6"/>
<path d="M85.1972 120C83.8399 120.003 82.5366 119.469 81.5733 118.515C80.6099 117.56 80.0652 116.263 80.0585 114.908V111.228C76.1987 111.659 62.9814 111.559 59.1927 110.951V114.761C59.1825 116.115 58.6366 117.41 57.674 118.364C56.7114 119.317 55.4102 119.853 54.0539 119.853C52.6977 119.853 51.3964 119.317 50.4338 118.364C49.4712 117.41 48.9254 116.115 48.9152 114.761V107.281C43.7837 104.435 39.5059 100.274 36.5232 95.2261C33.5405 90.1786 31.961 84.428 31.9478 78.5676C31.9478 68.5191 36.5094 59.1452 44.463 52.8497C49.6344 48.7425 55.9175 46.2724 62.5055 45.7567C63.3998 45.6867 64.2994 45.6513 65.1797 45.6513C68.2807 45.6513 82.2721 46.1295 85.7825 47.1378L93.7871 39.2083C93.9048 39.0902 94.0551 39.0097 94.2187 38.9771C94.3824 38.9445 94.5521 38.9614 94.7062 39.0255C94.8614 39.0871 94.9943 39.1942 95.0875 39.3326C95.1807 39.4711 95.2297 39.6344 95.2282 39.8012V41.0619L96.7869 39.5209C96.9043 39.4026 97.0545 39.322 97.218 39.2893C97.3816 39.2567 97.5513 39.2736 97.7052 39.3377C97.8606 39.3993 97.9936 39.5064 98.0869 39.6449C98.1802 39.7834 98.2293 39.9468 98.2279 40.1137V54.2024C102.244 57.8173 105.306 62.3656 107.141 67.4442C108.975 72.5228 109.527 77.9748 108.746 83.317C107.966 88.6593 105.877 93.7269 102.666 98.0707C99.4546 102.414 95.2194 105.9 90.3359 108.219V114.908C90.3293 116.263 89.7845 117.56 88.8212 118.515C87.8578 119.469 86.5545 120.003 85.1972 120ZM80.4625 110.77V114.908C80.4727 116.155 80.976 117.347 81.8629 118.226C82.7497 119.104 83.9481 119.596 85.1972 119.596C86.4463 119.596 87.6448 119.104 88.5316 118.226C89.4184 117.347 89.9217 116.155 89.9319 114.908V107.965L90.0473 107.91C95.5269 105.314 100.179 101.253 103.486 96.1772C107.701 89.7003 109.453 81.9311 108.427 74.2758C107.401 66.6205 103.663 59.5849 97.891 54.4424L97.8239 54.3823V40.1137C97.8253 40.027 97.8001 39.942 97.7516 39.87C97.7032 39.7981 97.6338 39.7427 97.5528 39.7113C97.4724 39.6769 97.3834 39.6677 97.2975 39.6847C97.2117 39.7017 97.133 39.7442 97.0718 39.8067L94.8242 42.029V39.8012C94.8257 39.7145 94.8005 39.6294 94.752 39.5575C94.7036 39.4855 94.6342 39.4301 94.5532 39.3988C94.4725 39.3645 94.3834 39.3553 94.2974 39.3724C94.2114 39.3896 94.1327 39.4322 94.0714 39.4949L85.8955 47.5941L85.7793 47.5578C82.5159 46.5381 68.3043 46.0546 65.1797 46.0546C64.3099 46.0546 63.4208 46.0896 62.5373 46.1589C56.0293 46.6682 49.8225 49.1083 44.714 53.1656C36.8576 59.3843 32.3517 68.6429 32.3517 78.5676C32.3651 84.3761 33.9362 90.0751 36.9016 95.0725C39.8671 100.07 44.1187 104.184 49.215 106.986L49.3192 107.044V114.761C49.3296 116.008 49.833 117.2 50.7198 118.078C51.6066 118.956 52.805 119.448 54.0539 119.448C55.3029 119.448 56.5012 118.956 57.388 118.078C58.2748 117.2 58.7783 116.008 58.7887 114.761V110.468L59.028 110.513C62.4327 111.153 76.7694 111.254 80.2342 110.8L80.4625 110.77Z" fill="#3F3D56"/>
<path d="M58.2997 24.2101L35.5357 30.615C34.8117 30.8195 34.2039 31.2848 33.8461 31.9086C33.4882 32.5323 33.4094 33.2636 33.6271 33.9417C33.8447 34.6198 34.341 35.1893 35.0068 35.5251C35.6727 35.8608 36.4537 35.9354 37.1782 35.7324L57.0992 30.1262L57.5165 30.0088C57.601 27.9954 58.1844 26.028 59.2206 24.262C59.0906 24.2073 58.9516 24.1734 58.8095 24.162C58.6379 24.1464 58.4646 24.1627 58.2997 24.2101Z" fill="#BA369C"/>
<path d="M37.0198 37.4031C36.731 37.4024 36.4498 37.3128 36.2158 37.1469C35.9818 36.9811 35.8069 36.7474 35.7158 36.4789L34.3555 32.4566C34.2987 32.2886 34.2762 32.1113 34.2893 31.9348C34.3024 31.7584 34.3509 31.5861 34.4319 31.428C34.513 31.2699 34.625 31.1289 34.7617 31.0132C34.8983 30.8975 35.0569 30.8093 35.2283 30.7537L52.9345 25.004C53.1059 24.9483 53.2868 24.9263 53.4669 24.9391C53.647 24.9519 53.8228 24.9994 53.9842 25.0788C54.1455 25.1582 54.2894 25.268 54.4075 25.4018C54.5256 25.5357 54.6156 25.6911 54.6724 25.859L56.0328 29.8813C56.1459 30.2121 56.1233 30.5731 55.9695 30.8878C55.8157 31.2026 55.543 31.4463 55.209 31.5674C55.1927 31.5734 55.1762 31.5791 55.1595 31.5844L37.4538 37.3339C37.3138 37.3796 37.1673 37.403 37.0198 37.4031Z" fill="#2F2E41"/>
<path d="M70.9088 16.3633C67.2638 16.3647 63.7624 17.7843 61.1457 20.3218C58.529 22.8592 57.0023 26.3153 56.8888 29.9585C56.8848 30.1007 56.8828 30.245 56.8828 30.3893C56.8828 33.1633 57.7054 35.8751 59.2466 38.1817C60.7878 40.4882 62.9784 42.286 65.5413 43.3476C68.1042 44.4091 70.9243 44.6869 73.6451 44.1457C76.3659 43.6045 78.8651 42.2687 80.8266 40.3071C82.7882 38.3455 84.1241 35.8464 84.6652 33.1256C85.2064 30.4048 84.9287 27.5847 83.8671 25.0217C82.8055 22.4588 81.0078 20.2683 78.7012 18.7271C76.3946 17.1859 73.6829 16.3633 70.9088 16.3633ZM70.9088 44.0145C67.2963 44.0107 63.8329 42.574 61.2784 40.0196C58.724 37.4652 57.2873 34.0017 57.2835 30.3893C57.2835 30.2029 57.2876 30.0186 57.2956 29.8362C57.4041 27.1672 58.2947 24.589 59.8568 22.4222C61.4188 20.2553 63.5834 18.5954 66.0812 17.6489C68.5791 16.7024 71.3001 16.5109 73.9058 17.0985C76.5116 17.686 78.8872 19.0265 80.7372 20.9533C82.5873 22.8801 83.8301 25.3082 84.3112 27.9357C84.7923 30.5632 84.4904 33.2742 83.4431 35.7315C82.3959 38.1888 80.6494 40.2841 78.4208 41.7568C76.1923 43.2294 73.58 44.0146 70.9088 44.0145Z" fill="#3F3D56"/>
<path d="M82.5973 30.3895C82.5973 33.4894 81.3659 36.4624 79.1739 38.6544C76.9819 40.8463 74.0089 42.0778 70.909 42.0778C67.8091 42.0778 64.8361 40.8463 62.6441 38.6544C60.4521 36.4624 59.2207 33.4894 59.2207 30.3895C59.2207 30.019 59.2385 29.6545 59.2722 29.2939C59.5538 26.3022 60.9769 23.5338 63.246 21.5637C65.515 19.5936 68.4557 18.5731 71.4574 18.7141C74.4591 18.855 77.2911 20.1467 79.3655 22.3208C81.4399 24.4949 82.5973 27.3845 82.5973 30.3895Z" fill="#E6E6E6"/>
<path d="M74.3655 31.177C74.0841 30.7995 73.7139 30.5005 73.2893 30.3076C72.7655 30.0824 72.2245 29.9011 71.6719 29.7655V26.5411C72.5214 26.6718 73.3182 27.0425 73.972 27.6112L74.6134 26.2159C74.2445 25.8805 73.821 25.6135 73.362 25.4268C72.8533 25.2166 72.3193 25.0769 71.7742 25.0112V23.377H70.2887V25.0273C69.7151 25.0931 69.1617 25.2826 68.6654 25.5834C68.2171 25.8542 67.8397 26.2317 67.5655 26.6837C67.3038 27.1248 67.1682 27.6317 67.174 28.1473C67.1484 28.706 67.3071 29.2574 67.6246 29.7133C67.9168 30.1081 68.3028 30.4204 68.746 30.6208C69.2782 30.8527 69.8284 31.0388 70.391 31.177V34.2669C69.3885 34.1897 68.4333 33.8008 67.6541 33.1526L67.0127 34.55C67.4484 34.9175 67.9438 35.2043 68.4766 35.3972C69.0603 35.6104 69.6701 35.7401 70.2887 35.7827V37.4029H71.7742V35.7526C72.5993 35.6606 73.3731 35.2985 73.9799 34.7206C74.2471 34.4591 74.4581 34.1439 74.5997 33.7948C74.7413 33.4457 74.8103 33.0705 74.8023 32.6928C74.827 32.1519 74.6732 31.6182 74.3655 31.177ZM70.391 29.4242C70.0292 29.3122 69.6927 29.128 69.4013 28.8821C69.2858 28.7773 69.1945 28.6477 69.134 28.5026C69.0734 28.3575 69.0451 28.2005 69.0511 28.0429C69.0404 27.6853 69.1691 27.338 69.4092 27.0772C69.6753 26.8036 70.0186 26.6218 70.391 26.5572V29.4242ZM72.6046 33.6967C72.3535 33.9593 72.0267 34.1331 71.6719 34.1926V31.5343C72.011 31.6272 72.3283 31.789 72.6046 32.0102C72.7093 32.1014 72.7925 32.2156 72.848 32.3442C72.9035 32.4729 72.9299 32.6126 72.9252 32.753C72.9389 33.0976 72.8243 33.4347 72.6046 33.6967Z" fill="#BA369C"/>
<path d="M37.9446 54.5457C37.6432 54.5451 37.3504 54.4381 37.1116 54.2411C36.8728 54.0442 36.7013 53.7683 36.6237 53.4563L35.8887 50.4759C35.7967 50.1013 35.8471 49.7029 36.029 49.3681C36.2108 49.0333 36.5092 48.7894 36.8586 48.6899L60.0475 42.1256C60.3974 42.0278 60.7692 42.0824 61.0817 42.2775C61.3941 42.4727 61.6216 42.7924 61.7146 43.1668L62.3373 45.6919L62.2206 45.7016C56.2734 46.1969 50.5831 48.5069 45.8229 52.3581L45.7891 52.3756L38.2908 54.4975C38.1778 54.5295 38.0615 54.5456 37.9446 54.5457Z" fill="#2F2E41"/>
<path d="M33.9297 68.4574C31.039 68.0565 28.2743 67.0753 25.8241 65.5805C24.6103 64.8405 23.4865 63.9778 22.4731 63.0077C21.4728 62.05 20.5159 60.9615 20.0205 59.686C19.5438 58.506 19.5684 57.1991 20.0891 56.0356C20.6028 54.8792 21.5839 53.9612 22.8175 53.4828C24.0585 53.0183 25.5578 52.9686 26.7655 53.4773C27.341 53.7141 27.839 54.0904 28.2084 54.5676C28.3801 54.7876 28.5073 55.0354 28.5835 55.2985C28.6542 55.537 28.6607 55.7882 28.6022 56.0296C28.5314 56.2706 28.4065 56.4946 28.2359 56.6866C28.0653 56.8786 27.853 57.0341 27.6131 57.1427C27.0853 57.3969 26.5133 57.5607 25.9241 57.6262C25.3316 57.7021 24.4803 57.7711 24.0039 57.3246C23.9059 57.2363 23.8287 57.1295 23.7776 57.0113C23.7417 56.9208 23.7295 56.8236 23.7418 56.7277C23.7349 56.77 23.7706 56.6359 23.7685 56.6412C23.761 56.661 23.7284 56.7094 23.7748 56.6351C23.7893 56.6106 23.8054 56.5871 23.8231 56.5645C23.8073 56.5836 23.7727 56.6155 23.8345 56.5608C23.8855 56.5084 23.9511 56.4704 24.0239 56.451C24.0526 56.4432 24.0817 56.4369 24.1104 56.4296C24.1835 56.4108 24.0376 56.4306 24.1124 56.4283C24.1412 56.4275 24.1704 56.4281 24.1992 56.4269C24.2725 56.4238 24.1268 56.4081 24.1971 56.4247C24.2244 56.4312 24.2514 56.4375 24.2783 56.4454C24.3368 56.4627 24.2369 56.4052 24.2765 56.4482C24.323 56.4987 24.2278 56.3992 24.2806 56.448C24.3068 56.4722 24.3316 56.4978 24.3547 56.5247C24.4461 56.6095 24.5695 56.657 24.6981 56.657C24.8266 56.657 24.95 56.6095 25.0415 56.5247C25.1299 56.4379 25.1792 56.3224 25.1792 56.2023C25.1792 56.0822 25.1299 55.9668 25.0415 55.88C24.5626 55.3227 23.6167 55.4604 23.1322 55.9314C22.5144 56.5321 22.759 57.484 23.36 58.0081C24.0404 58.6015 25.0039 58.6427 25.8791 58.5432C26.6187 58.4767 27.3394 58.2855 28.0067 57.9788C28.6697 57.673 29.1883 57.1471 29.462 56.503C29.5855 56.1592 29.6299 55.7948 29.5922 55.4337C29.5544 55.0726 29.4355 54.7232 29.2431 54.4085C28.4704 53.0449 26.8705 52.3458 25.2891 52.2247C24.4749 52.1649 23.6561 52.2572 22.8802 52.4963C22.1042 52.7354 21.3865 53.1166 20.7685 53.6178C19.5774 54.6244 18.844 56.0222 18.7198 57.5222C18.5818 59.0773 19.2245 60.5876 20.1617 61.8427C21.1427 63.1178 22.3135 64.2544 23.6381 65.2177C26.2278 67.1585 29.2656 68.5034 32.5082 69.1446C32.8939 69.2194 33.2817 69.2834 33.6715 69.3366C33.7955 69.3649 33.9264 69.3476 34.0374 69.2885C34.1483 69.2293 34.2311 69.1327 34.2689 69.0182C34.3022 68.9017 34.2853 68.7775 34.2218 68.6725C34.1583 68.5676 34.0534 68.4903 33.9297 68.4574Z" fill="#3F3D56"/>
<path d="M78.5637 48.3278C74.5164 48.2707 70.4819 48.3734 66.4601 48.6361C65.0854 48.726 63.896 49.2121 63.896 50.0293C63.896 50.7124 65.0759 51.5128 66.4601 51.4224C70.4798 51.1597 74.5143 51.0569 78.5637 51.114C81.8649 51.1607 81.8629 48.3744 78.5637 48.3278Z" fill="#CCCCCC"/>
<path d="M72.4672 50.6501C72.0218 50.6501 61.5581 50.6323 61.5581 49.0916C61.5581 47.5509 72.0218 47.5332 72.4672 47.5332C72.9126 47.5332 83.3763 47.5509 83.3763 49.0916C83.3763 50.6323 72.9126 50.6501 72.4672 50.6501ZM61.9673 49.0916C62.2536 49.5587 66.0998 50.2202 72.4672 50.2202C78.8345 50.2202 82.6807 49.5587 82.9671 49.0916C82.6808 48.6246 78.8345 47.9631 72.4672 47.9631C66.0998 47.9631 62.2536 48.6246 61.9673 49.0916Z" fill="#3F3D56"/>
<path d="M106.011 88.8316C108.243 88.7665 111.021 88.6851 113.161 87.0423C113.798 86.5331 114.322 85.8835 114.695 85.1393C115.068 84.395 115.282 83.574 115.321 82.7337C115.365 81.4363 114.919 80.3038 114.065 79.5458C112.948 78.5533 111.316 78.3205 109.557 78.8637L111.379 64.8684L110.041 64.6758L107.899 81.129L109.016 80.5903C110.311 79.966 112.089 79.6483 113.194 80.6294C113.465 80.8859 113.676 81.2047 113.811 81.561C113.946 81.9173 114.001 82.3015 113.972 82.6838C113.939 83.3092 113.779 83.9198 113.501 84.4741C113.224 85.0285 112.836 85.5135 112.364 85.8963C110.699 87.1746 108.485 87.3395 105.974 87.4133L106.011 88.8316Z" fill="#3F3D56"/>
<path d="M102.078 66.2344H94.2856V67.7928H102.078V66.2344Z" fill="#3F3D56"/>
<path d="M41.5752 60.7784C41.2454 60.7773 40.9269 60.6598 40.6765 60.4469C40.4261 60.234 40.2604 59.9397 40.2089 59.6165L39.7567 56.7536C39.7003 56.3935 39.7901 56.0259 40.0064 55.7314C40.2228 55.437 40.5481 55.2397 40.9109 55.1829L64.9614 51.4441C65.3243 51.3881 65.6948 51.4772 65.9915 51.6919C66.2883 51.9065 66.4871 52.2292 66.5443 52.5892L66.9965 55.4522C67.0529 55.8123 66.9632 56.1799 66.7468 56.4743C66.5304 56.7688 66.2052 56.9661 65.8424 57.0229L41.7919 60.7616C41.7202 60.7727 41.6477 60.7784 41.5752 60.7784Z" fill="#2F2E41"/>
<path d="M31.1684 26.4941C36.763 26.4941 41.2983 21.9588 41.2983 16.3642C41.2983 10.7697 36.763 6.23438 31.1684 6.23438C25.5739 6.23438 21.0386 10.7697 21.0386 16.3642C21.0386 21.9588 25.5739 26.4941 31.1684 26.4941Z" fill="#BA369C"/>
<path d="M36.9592 19.1953C37.2582 19.0797 37.5313 18.8947 37.7602 18.6527C37.9117 18.4801 38.0272 18.273 38.0986 18.0459C38.1701 17.8189 38.1957 17.5773 38.1738 17.338C38.1611 17.1676 38.1129 17.0026 38.033 16.8562C37.953 16.7097 37.8435 16.5856 37.713 16.4937C37.3745 16.2635 36.9271 16.2722 36.4754 16.5037L36.4233 12.4668L36.0565 12.4726L36.1177 17.2183L36.397 17.0159C36.7208 16.7815 37.1861 16.6115 37.5208 16.8391C37.6036 16.8994 37.6727 16.9799 37.7227 17.0745C37.7728 17.1691 37.8024 17.2752 37.8093 17.3845C37.8248 17.5627 37.8053 17.7425 37.7522 17.9116C37.6992 18.0808 37.6138 18.2353 37.5019 18.3647C37.1042 18.8009 36.5156 18.947 35.8438 19.0807L35.9088 19.4798C36.2659 19.4198 36.6174 19.3246 36.9592 19.1953Z" fill="#2F2E41"/>
<path d="M40.3484 11.969L38.2095 12.293L38.2696 12.6901L40.4085 12.3661L40.3484 11.969Z" fill="#2F2E41"/>
<path d="M33.5969 12.9905L31.458 13.3145L31.5181 13.7115L33.6571 13.3876L33.5969 12.9905Z" fill="#2F2E41"/>
<path d="M37.3751 60.7799C37.0075 60.7791 36.6489 60.6664 36.3469 60.4568C36.0449 60.2471 35.814 59.9506 35.6847 59.6064L28.6373 40.7338C27.776 38.4191 27.8679 35.8574 28.8931 33.6105C29.9182 31.3636 31.7928 29.6151 34.1056 28.7486L39.8359 26.609C40.0575 26.5257 40.2934 26.487 40.53 26.4952C40.7665 26.5034 40.9992 26.5584 41.2144 26.6568C41.4292 26.7528 41.6226 26.8905 41.7835 27.0621C41.9444 27.2337 42.0695 27.4356 42.1515 27.656L55.2061 52.3036C55.2908 52.5259 55.3308 52.7627 55.3237 53.0004C55.3165 53.2382 55.2625 53.4722 55.1646 53.689C55.0666 53.9058 54.9268 54.101 54.7531 54.2636C54.5795 54.4261 54.3753 54.5527 54.1526 54.636L38.0055 60.6653C37.8039 60.7409 37.5904 60.7797 37.3751 60.7799Z" fill="#2F2E41"/>
<path d="M38.9609 26.6252L51.4285 44.4161L42.9922 26.8119C42.9226 26.6065 42.8156 26.4177 42.6776 26.2564C42.5396 26.0951 42.3731 25.9644 42.1877 25.8718C42.0023 25.7792 41.8016 25.7264 41.5971 25.7165C41.3926 25.7067 41.1883 25.7399 40.9958 25.8143L38.9609 26.6252Z" fill="#E6E6E6"/>
<path d="M59.2044 39.7369L36.106 38.255C35.7419 38.2316 35.386 38.1371 35.0586 37.9767C34.7312 37.8164 34.4387 37.5934 34.1979 37.3204C33.957 37.0475 33.7725 36.73 33.6548 36.386C33.5371 36.0421 33.4886 35.6784 33.5121 35.3158C33.5355 34.9531 33.6305 34.5987 33.7915 34.2726C33.9525 33.9465 34.1764 33.6552 34.4504 33.4153C34.7244 33.1754 35.0432 32.9916 35.3886 32.8744C35.7339 32.7572 36.0991 32.7089 36.4631 32.7323L59.5616 34.2141C59.7321 34.225 59.8988 34.2693 60.0521 34.3444C60.2054 34.4194 60.3424 34.5239 60.4552 34.6517C60.568 34.7795 60.6544 34.9282 60.7096 35.0893C60.7647 35.2504 60.7874 35.4207 60.7764 35.5905L60.5865 38.527C60.5643 38.87 60.4062 39.1901 60.147 39.417C59.8879 39.6439 59.5488 39.7589 59.2044 39.7369Z" fill="#BA369C"/>
<path d="M52.7821 41.2979C52.7509 41.2979 52.7197 41.2969 52.6883 41.2949L33.2888 40.0339C33.101 40.0218 32.9174 39.9724 32.7485 39.8886C32.5796 39.8048 32.4287 39.6882 32.3045 39.5456C32.1802 39.403 32.085 39.237 32.0243 39.0573C31.9636 38.8775 31.9386 38.6874 31.9507 38.4979L32.2825 33.3004C32.2946 33.1109 32.3435 32.9256 32.4266 32.7552C32.5096 32.5848 32.6252 32.4325 32.7665 32.3071C32.9079 32.1818 33.0723 32.0857 33.2505 32.0245C33.4287 31.9633 33.617 31.938 33.8048 31.9503L53.2043 33.2111C53.5834 33.2362 53.9372 33.412 54.188 33.6999C54.4389 33.9879 54.5663 34.3645 54.5423 34.7471L54.2106 39.9448C54.1923 40.2233 54.0948 40.4905 53.9297 40.7145C53.7646 40.9384 53.539 41.1095 53.2799 41.2072C53.1207 41.2673 52.9521 41.298 52.7821 41.2979Z" fill="#2F2E41"/>
<path d="M31.0573 9.34139C32.4557 8.19307 34.3761 9.22032 35.9798 9.0405C37.5141 8.86845 38.7257 7.55442 39.0352 6.15843C39.3962 4.52977 38.5108 2.89809 37.2058 1.88266C35.7765 0.7705 33.8808 0.451227 32.0845 0.656984C30.0257 0.892805 28.1428 1.80909 26.4532 2.91739C24.8224 3.95403 23.3227 5.16735 21.9841 6.53315C20.7853 7.79716 19.7697 9.30383 19.4454 11.0047C19.1507 12.5505 19.3757 14.2635 20.3328 15.5729C20.8403 16.2441 21.5204 16.7791 22.3075 17.1262C23.1282 17.511 24.0037 17.7861 24.7988 18.2211C26.001 18.8789 27.1694 20.2427 26.7928 21.6621C26.7121 21.9721 26.5528 22.2585 26.3288 22.4959C26.0598 22.781 25.5746 22.4043 25.8443 22.1184C26.318 21.6163 26.2994 20.9466 26.0469 20.3472C25.7467 19.6717 25.2151 19.1136 24.5392 18.7642C23.7069 18.3099 22.7881 18.0295 21.935 17.6157C21.1186 17.2376 20.4098 16.6769 19.8692 15.9811C18.8482 14.6265 18.5428 12.8635 18.7744 11.2326C19.0249 9.46776 19.9747 7.86402 21.1652 6.52009C22.4609 5.05751 24.0524 3.81948 25.6783 2.70728C27.423 1.51387 29.3504 0.504933 31.4833 0.140016C33.3321 -0.176311 35.3361 0.01844 36.9528 0.980401C38.462 1.87833 39.6192 3.42294 39.7343 5.1489C39.7756 5.9342 39.597 6.71584 39.2169 7.41336C38.8368 8.11088 38.2688 8.6991 37.5715 9.11747C36.856 9.52626 36.0242 9.71026 35.1933 9.64351C34.305 9.58922 33.4159 9.32952 32.522 9.40162C32.1175 9.42507 31.732 9.57377 31.4239 9.8252C31.1184 10.0761 30.7543 9.59023 31.0573 9.34139Z" fill="#2F2E41"/>
<path d="M145.603 117.281H3.33575C2.01393 117.281 0.936523 118.115 0.936523 119.14C0.936523 120.167 2.01393 121 3.33575 121H145.603C146.925 121 148 120.167 148 119.14C148 118.115 146.925 117.281 145.603 117.281Z" fill="#E6E6E6"/>
</svg>
