<svg width="553" height="268" viewBox="0 0 553 268" fill="none" xmlns="http://www.w3.org/2000/svg">
<path d="M92.6677 268C78.1556 267.151 63.8422 266.472 49.3301 265.624C42.9686 263.926 31.0408 259.853 20.3058 250.517C2.01651 234.902 0.22734 215.043 0.0285434 207.914C-0.170253 202.652 0.22734 183.981 16.3299 166.838C19.9082 163.104 31.836 150.543 53.5048 145.451C81.9327 138.831 105.192 150.034 109.764 152.41C109.367 147.827 109.367 141.208 110.361 133.4C111.752 123.555 114.138 106.582 128.65 90.6266C142.566 75.1807 160.259 69.0702 165.228 67.5426C195.843 57.6979 223.078 66.8636 229.44 69.2399C229.639 64.8268 230.633 58.5466 233.416 51.248C241.765 31.2192 259.856 20.5259 268.603 15.4338C274.765 11.8694 288.88 3.89181 309.952 1.00631C337.784 -2.72787 359.254 4.91022 367.405 7.96546C375.356 10.851 399.411 20.1864 416.11 43.2704C432.212 65.5057 432.212 87.2319 431.616 95.2094C438.773 94.3607 448.514 93.6818 460.044 94.7002C464.417 95.0397 478.929 96.5673 493.839 102.169C528.43 115.238 543.936 143.075 544.532 144.433C566.002 184.32 540.159 222.341 537.773 225.906C533.201 232.356 518.888 250.857 491.056 261.211C480.52 265.115 470.779 266.812 464.02 267.491C340.368 267.661 216.518 267.83 92.6677 268Z" fill="#FFF7FD"/>
</svg>
